# File created by Blade
# Date/Time:  Tue Jan 27 19:00:46 2015
#---------------------------------------------------------
:version 1.10
:name HOM
:units
  mass 1.0
  length 1.000000
  angle deg
:documentation
     Acclaim Skeleton File
:root
   axis xyz
   order TX TY TZ RX RY RZ
   position 0.000000 0.000000 0.000000
   orientation 0 0 0
:bonedata
   begin
      id 1
      name Spine_dum
      direction 0.000000 1.000000 0.000000
      length 5.195262
      axis 0.0 0.0 0.0 xyz
   end
   begin
      id 2
      name LeftUpLeg_dum
      direction 1.000000 0.000000 0.000000
      length 3.351363
      axis 0.0 0.0 0.0 xyz
   end
   begin
      id 3
      name RightUpLeg_dum
      direction -1.000000 0.000000 0.000000
      length 3.351363
      axis 0.0 0.0 0.0 xyz
   end
   begin
      id 4
      name Spine
      direction 0.000000 1.000000 0.000000
      length 0.000000
      axis 0.0 0.0 0.0 xyz
      dof rx ry rz
   end
   begin
      id 5
      name Spine_dum1
      direction 0.000000 1.000000 0.000000
      length 15.653875
      axis 0.0 0.0 0.0 xyz
   end
   begin
      id 6
      name Spine_dum2
      direction 0.000000 1.000000 0.000000
      length 10.329768
      axis 0.0 0.0 0.0 xyz
   end
   begin
      id 7
      name Spine_dum3
      direction 0.000000 1.000000 0.000000
      length 10.329768
      axis 0.0 0.0 0.0 xyz
   end
   begin
      id 8
      name Head
      direction 0.000000 1.000000 0.000000
      length 4.527550
      axis 0.0 0.0 0.0 xyz
      dof rx ry rz
   end
   begin
      id 9
      name LeftShoulder
      direction 1.000000 0.000000 0.000000
      length 6.996006
      axis 0.0 0.0 -90.0 xyz
      dof rx ry rz
   end
   begin
      id 10
      name LeftArm
      direction 1.000000 0.000000 0.000000
      length 10.209302
      axis 0.0 0.0 -90.0 xyz
      dof rx ry rz
   end
   begin
      id 11
      name LeftForeArm
      direction 1.000000 0.000000 0.000000
      length 8.563163
      axis 0.0 0.0 -90.0 xyz
      dof ry rz rx
   end
   begin
      id 12
      name LeftHand
      direction 0.000000 0.000000 0.000000
      length 0.000000
      axis 0.0 0.0 -90.0 xyz
      dof rx ry rz
   end
   begin
      id 13
      name LeftHand_dum1
      direction 0.000000 0.000000 0.000000
      length 0.000000
      axis 0.0 0.0 -90.0 xyz
   end
   begin
      id 14
      name LeftHand_dum2
      direction 1.000000 0.000000 0.000000
      length 3.937000
      axis 0.0 0.0 -90.0 xyz
   end
   begin
      id 15
      name LeftHandThumb1
      direction 0.000000 0.000000 1.000000
      length 3.937000
      axis 0.0 0.0 -90.0 xyz
      dof rx rz ry
   end
   begin
      id 16
      name RightShoulder
      direction -1.000000 0.000000 0.000000
      length 6.996006
      axis 0.0 0.0 90.0 xyz
      dof rx ry rz
   end
   begin
      id 17
      name RightArm
      direction -1.000000 0.000000 0.000000
      length 10.209302
      axis 0.0 0.0 90.0 xyz
      dof rx ry rz
   end
   begin
      id 18
      name RightForeArm
      direction -1.000000 0.000000 0.000000
      length 8.563163
      axis 0.0 0.0 90.0 xyz
      dof ry rz rx
   end
   begin
      id 19
      name RightHand
      direction 0.000000 0.000000 0.000000
      length 0.000000
      axis 0.0 0.0 90.0 xyz
      dof rx ry rz
   end
   begin
      id 20
      name RightHand_dum1
      direction 0.000000 0.000000 0.000000
      length 0.000000
      axis 0.0 0.0 90.0 xyz
   end
   begin
      id 21
      name RightHand_dum2
      direction -1.000000 0.000000 0.000000
      length 3.937000
      axis 0.0 0.0 90.0 xyz
   end
   begin
      id 22
      name RightHandThumb1
      direction 0.000000 0.000000 1.000000
      length 3.937000
      axis 0.0 0.0 90.0 xyz
      dof rx rz ry
   end
   begin
      id 23
      name LeftUpLeg
      direction 0.000000 -1.000000 0.000000
      length 16.346831
      axis 0.0 0.0 0.0 xyz
      dof rx ry rz
   end
   begin
      id 24
      name LeftLeg
      direction 0.000000 -1.000000 0.000000
      length 13.959795
      axis 0.0 0.0 0.0 xyz
      dof rx ry rz
   end
   begin
      id 25
      name LeftFoot
      direction 0.000000 -0.258819 0.965926
      length 5.165550
      axis 15.0 0.0 0.0 xyz
      dof rx ry rz
   end
   begin
      id 26
      name LeftToeBase
      direction 0.000000 0.000000 1.000000
      length 2.952750
      axis 0.0 0.0 0.0 xyz
      dof rx ry rz
   end
   begin
      id 27
      name RightUpLeg
      direction 0.000000 -1.000000 0.000000
      length 16.346831
      axis 0.0 0.0 0.0 xyz
      dof rx ry rz
   end
   begin
      id 28
      name RightLeg
      direction 0.000000 -1.000000 0.000000
      length 13.959795
      axis 0.0 0.0 0.0 xyz
      dof rx ry rz
   end
   begin
      id 29
      name RightFoot
      direction 0.000000 -0.258819 0.965926
      length 5.165550
      axis 15.0 0.0 0.0 xyz
      dof rx ry rz
   end
   begin
      id 30
      name RightToeBase
      direction 0.000000 0.000000 1.000000
      length 2.952750
      axis 0.0 0.0 0.0 xyz
      dof rx ry rz
   end
:hierarchy
   begin
      root Spine_dum LeftUpLeg_dum RightUpLeg_dum
      Spine_dum Spine
      LeftUpLeg_dum LeftUpLeg
      RightUpLeg_dum RightUpLeg
      Spine Spine_dum1 Spine_dum2 Spine_dum3
      Spine_dum1 Head
      Spine_dum2 LeftShoulder
      Spine_dum3 RightShoulder
      LeftShoulder LeftArm
      LeftArm LeftForeArm
      LeftForeArm LeftHand
      LeftHand LeftHand_dum1 LeftHand_dum2
      LeftHand_dum1 LeftHandThumb1
      RightShoulder RightArm
      RightArm RightForeArm
      RightForeArm RightHand
      RightHand RightHand_dum1 RightHand_dum2
      RightHand_dum1 RightHandThumb1
      LeftUpLeg LeftLeg
      LeftLeg LeftFoot
      LeftFoot LeftToeBase
      RightUpLeg RightLeg
      RightLeg RightFoot
      RightFoot RightToeBase
   end

# File created by Blade
# Date/Time:  Tue Jan 27 19:00:36 2015
# Frame Rate: 120.000 fps
#------------------------------------------------------
:FULLY-SPECIFIED
:DEGREES
1466
root -2.331152 31.701798 -4.696058 1.896879 12.514895 -4.020884
Spine 0.515395 -8.070290 -0.678980
Head 24.253491 -3.340146 5.535460
LeftShoulder -16.812342 13.549936 14.412862
LeftArm 17.282040 -36.253484 -72.634396
LeftForeArm -5.918189 -0.000000 78.374356
LeftHand -10.530802 -0.000000 26.277008
LeftHandThumb1 -26.253704 0.000000 33.147579
RightShoulder -13.300975 -4.586423 -8.095770
RightArm 4.316831 -30.999257 85.038115
RightForeArm -23.559563 -0.000000 21.350918
RightHand -14.395404 0.000000 10.327735
RightHandThumb1 -24.326973 -0.000000 -32.862282
LeftUpLeg -5.543591 -6.506281 -4.485035
LeftLeg 18.034357 -0.000000 -0.000000
LeftFoot -26.307509 23.039650 -15.062305
LeftToeBase 9.434040 -0.000000 -0.000000
RightUpLeg -47.756849 -1.097412 1.399183
RightLeg 76.232389 -0.000000 -0.000000
RightFoot -9.444289 0.809362 33.992815
RightToeBase 6.625494 -0.000000 -0.000000
1467
root -2.347762 31.713729 -4.678033 1.716198 13.103222 -4.226932
Spine 0.625098 -8.438468 -0.510708
Head 24.335917 -3.728713 5.696014
LeftShoulder -16.776019 13.601965 14.411198
LeftArm 17.528886 -36.007387 -72.707257
LeftForeArm -5.995528 -0.000000 78.411198
LeftHand -10.508627 -0.000000 26.230109
LeftHandThumb1 -26.253704 0.000000 33.147579
RightShoulder -13.408385 -4.655972 -8.003946
RightArm 4.251079 -30.934839 85.098017
RightForeArm -23.638266 -0.000000 21.298207
RightHand -14.410256 -0.000000 10.479300
RightHandThumb1 -24.326973 -0.000000 -32.862282
LeftUpLeg -5.452302 -6.773386 -4.230943
LeftLeg 18.123759 -0.000000 -0.000000
LeftFoot -26.246828 22.786194 -14.969218
LeftToeBase 9.434940 -0.000000 -0.000000
RightUpLeg -47.211519 0.944262 -0.442066
RightLeg 76.489599 -0.000000 -0.000000
RightFoot -9.079234 0.504912 33.377903
RightToeBase 6.794384 -0.000000 -0.000000
1468
root -2.362379 31.724982 -4.663230 1.564200 13.738700 -4.434802
Spine 0.708346 -8.840032 -0.328757
Head 24.422053 -4.138978 5.819015
LeftShoulder -16.700774 13.600512 14.410405
LeftArm 17.528018 -35.688787 -72.620201
LeftForeArm -6.000195 -0.000000 78.589528
LeftHand -10.516153 -0.000000 25.952643
LeftHandThumb1 -26.253704 0.000000 33.147579
RightShoulder -13.512470 -4.697218 -7.923307
RightArm 4.143282 -30.863580 85.165512
RightForeArm -23.694061 -0.000000 21.275914
RightHand -14.417643 0.000000 10.516680
RightHandThumb1 -24.326973 -0.000000 -32.862282
LeftUpLeg -5.417467 -7.106788 -3.976677
LeftLeg 18.255492 -0.000000 -0.000000
LeftFoot -26.189889 22.590020 -14.875516
LeftToeBase 9.268167 -0.000000 -0.000000
RightUpLeg -46.760962 2.875078 -2.218833
RightLeg 76.830857 -0.000000 -0.000000
RightFoot -8.565918 0.329764 33.001447
RightToeBase 6.644842 -0.000000 -0.000000
1469
root -2.378623 31.734967 -4.648406 1.434186 14.356676 -4.622943
Spine 0.769572 -9.189896 -0.176966
Head 24.498182 -4.561171 5.958973
LeftShoulder -16.642035 13.568651 14.415087
LeftArm 17.565706 -35.332703 -72.525788
LeftForeArm -6.032240 -0.000000 78.721482
LeftHand -10.475523 -0.000000 26.089399
LeftHandThumb1 -26.253704 0.000000 33.147579
RightShoulder -13.643724 -4.784189 -7.842382
RightArm 4.072557 -30.774294 85.242486
RightForeArm -23.695036 -0.000000 21.240225
RightHand -14.417537 0.000000 10.510940
RightHandThumb1 -24.326973 -0.000000 -32.862282
LeftUpLeg -5.412900 -7.377761 -3.745868
LeftLeg 18.408680 -0.000000 -0.000000
LeftFoot -26.202381 22.346420 -14.846643
LeftToeBase 9.352405 -0.000000 -0.000000
RightUpLeg -46.363948 4.889000 -3.965203
RightLeg 77.207166 -0.000000 -0.000000
RightFoot -8.404021 -0.251908 32.520125
RightToeBase 7.619338 -0.000000 -0.000000
1470
root -2.396872 31.745539 -4.638359 1.331686 15.004920 -4.855012
Spine 0.796202 -9.542035 0.038953
Head 24.567108 -5.017687 6.071367
LeftShoulder -16.582563 13.513445 14.403948
LeftArm 17.661303 -34.974823 -72.470966
LeftForeArm -6.044229 -0.000000 78.828746
LeftHand -10.462312 -0.000000 26.045806
LeftHandThumb1 -26.253704 0.000000 33.147579
RightShoulder -13.771170 -4.831901 -7.787266
RightArm 3.945097 -30.697750 85.351999
RightForeArm -23.712596 -0.000000 21.220340
RightHand -14.460550 -0.000000 10.517904
RightHandThumb1 -24.326973 -0.000000 -32.862282
LeftUpLeg -5.485637 -7.724699 -3.462307
LeftLeg 18.613342 -0.000000 -0.000000
LeftFoot -26.043523 22.159589 -14.616512
LeftToeBase 9.036197 -0.000000 -0.000000
RightUpLeg -46.059939 6.857146 -5.613256
RightLeg 77.600067 -0.000000 -0.000000
RightFoot -8.212379 -0.970275 31.621040
RightToeBase 8.551120 -0.000000 -0.000000
1471
root -2.417359 31.757948 -4.628265 1.262711 15.694786 -5.094792
Spine 0.771602 -9.936178 0.263538
Head 24.666915 -5.463036 6.197355
LeftShoulder -16.522135 13.489784 14.365387
LeftArm 17.775363 -34.629578 -72.403287
LeftForeArm -6.060157 0.000000 78.952576
LeftHand -10.451313 -0.000000 25.925198
LeftHandThumb1 -26.253704 0.000000 33.147579
RightShoulder -13.888300 -4.935714 -7.712477
RightArm 3.865750 -30.600203 85.434689
RightForeArm -23.686444 -0.000000 21.201386
RightHand -14.493906 -0.000000 10.481048
RightHandThumb1 -24.326973 -0.000000 -32.862282
LeftUpLeg -5.600465 -8.057769 -3.151783
LeftLeg 18.809985 -0.000000 -0.000000
LeftFoot -26.081926 21.741323 -14.660103
LeftToeBase 9.216443 -0.000000 -0.000000
RightUpLeg -45.804811 8.658812 -7.124281
RightLeg 77.988726 -0.000000 -0.000000
RightFoot -8.171940 -1.942934 30.667231
RightToeBase 9.220254 -0.000000 -0.000000
1472
root -2.439815 31.771411 -4.616183 1.211100 16.422927 -5.347304
Spine 0.718828 -10.297608 0.490398
Head 24.752922 -6.012172 6.329617
LeftShoulder -16.421907 13.462899 14.339328
LeftArm 17.935723 -34.260777 -72.346357
LeftForeArm -6.190730 0.000000 79.071057
LeftHand -10.414656 0.000000 25.828952
LeftHandThumb1 -26.253704 0.000000 33.147579
RightShoulder -14.070248 -5.051688 -7.613889
RightArm 3.799384 -30.523858 85.492592
RightForeArm -23.610345 -0.000000 21.157477
RightHand -14.396618 -0.000000 10.542870
RightHandThumb1 -24.326973 -0.000000 -32.862282
LeftUpLeg -5.750317 -8.407271 -2.816371
LeftLeg 19.010277 -0.000000 -0.000000
LeftFoot -25.980780 21.386164 -14.525303
LeftToeBase 9.121614 -0.000000 -0.000000
RightUpLeg -45.584859 10.331356 -8.518592
RightLeg 78.415248 -0.000000 -0.000000
RightFoot -8.253843 -3.021528 29.884134
RightToeBase 10.212636 -0.000000 -0.000000
1473
root -2.458322 31.783721 -4.604926 1.181624 17.146331 -5.583976
Spine 0.644191 -10.653930 0.718619
Head 24.804938 -6.529796 6.430703
LeftShoulder -16.348693 13.435474 14.331099
LeftArm 18.133659 -33.887959 -72.353104
LeftForeArm -6.225109 -0.000000 79.117039
LeftHand -10.324856 -0.000000 25.832609
LeftHandThumb1 -26.253704 0.000000 33.147579
RightShoulder -14.233973 -5.125154 -7.558922
RightArm 3.670747 -30.451500 85.594850
RightForeArm -23.567953 -0.000000 21.124792
RightHand -14.325937 -0.000000 10.668922
RightHandThumb1 -24.326973 -0.000000 -32.862282
LeftUpLeg -5.925089 -8.777806 -2.499464
LeftLeg 19.217771 -0.000000 -0.000000
LeftFoot -26.041006 20.974445 -14.620300
LeftToeBase 9.348357 -0.000000 -0.000000
RightUpLeg -45.421604 11.876789 -9.836681
RightLeg 78.839190 -0.000000 -0.000000
RightFoot -8.348080 -4.339422 28.649155
RightToeBase 10.080251 -0.000000 -0.000000
1474
root -2.476908 31.797193 -4.595923 1.149456 17.908074 -5.862242
Spine 0.566530 -11.022638 1.006435
Head 24.834839 -7.088385 6.493486
LeftShoulder -16.230814 13.218099 14.385696
LeftArm 18.117302 -33.478078 -72.269828
LeftForeArm -6.216582 0.000000 79.142011
LeftHand -10.270052 -0.000000 25.837464
LeftHandThumb1 -26.253704 0.000000 33.147579
RightShoulder -14.407175 -5.230272 -7.514274
RightArm 3.581656 -30.399204 85.674589
RightForeArm -23.508575 -0.000000 21.110868
RightHand -14.311220 -0.000000 10.806132
RightHandThumb1 -24.326973 -0.000000 -32.862282
LeftUpLeg -6.130540 -9.160584 -2.146127
LeftLeg 19.424848 -0.000000 -0.000000
LeftFoot -26.004817 20.633243 -14.582820
LeftToeBase 9.429889 -0.000000 -0.000000
RightUpLeg -45.249280 13.261511 -10.993926
RightLeg 79.250958 -0.000000 -0.000000
RightFoot -8.697019 -6.064959 27.191472
RightToeBase 10.826008 -0.000000 -0.000000
